<svg id="svg8" height="512" viewBox="0 0 33.866666 33.866668" width="512" xmlns="http://www.w3.org/2000/svg" xmlns:svg="http://www.w3.org/2000/svg"><linearGradient id="linearGradient3363" gradientUnits="userSpaceOnUse" x1="-180.440378" x2="-180.440378" y1="97.375304" y2="99.607314"><stop id="stop2198" offset="0" stop-color="#f6f600"/><stop id="stop2200" offset="1" stop-color="#f69134"/></linearGradient><g id="layer1"><path id="rect8728" d="m3.7041657 1.058333h26.4583353c1.465792 0 2.645833 1.1800417 2.645833 2.6458333v3.472156c0 1.4657917-1.180041 2.6458333-2.645833 2.6458333h-26.4583353c-1.4657916 0-2.6458333-1.1800416-2.6458333-2.6458333v-3.472156c0-1.4657916 1.1800417-2.6458333 2.6458333-2.6458333z" fill="#06f" paint-order="fill markers stroke"/><path id="path8731" d="m3.7041657 12.00302h9.1362573c1.465792 0 2.645833 1.180042 2.645833 2.645833v15.510142c0 1.465792-1.477698 2.645833-2.94349 2.645833h-8.8386003c-1.4657916 0-2.6458333-1.180041-2.6458333-2.645833v-15.510142c0-1.465791 1.1800417-2.645833 2.6458333-2.645833z" fill="#00a1ff" paint-order="fill markers stroke"/><g fill="#a8d0ff"><path id="path8733" d="m21.02454 12.00302h9.136258c1.465792 0 2.645833 1.180042 2.645833 2.645833v3.442923c0 1.465792-1.477698 2.645833-2.94349 2.645833h-8.838601c-1.465791 0-2.645833-1.180041-2.645833-2.645833v-3.442923c0-1.465791 1.180042-2.645833 2.645833-2.645833z" paint-order="fill markers stroke"/><path id="path8735" d="m21.02454 23.541072h9.136258c1.465792 0 2.645833 1.180042 2.645833 2.645833v3.97209c0 1.465792-1.477698 2.645833-2.94349 2.645833h-8.838601c-1.465791 0-2.645833-1.180041-2.645833-2.645833v-3.97209c0-1.465791 1.180042-2.645833 2.645833-2.645833z" paint-order="fill markers stroke"/></g></g></svg>