<svg version="1.1" id="Capa_1" xmlns="http://www.w3.org/2000/svg" xmlns:xlink="http://www.w3.org/1999/xlink" x="0px" y="0px" viewBox="0 0 512 512" style="enable-background:new 0 0 512 512;" xml:space="preserve">
<g>
	<g>
		<g>
			<path style="fill:#BB5D4C;" d="M201.759,146.907h13.848V136.08c0-15.991,13.01-29,29-29h96.686c15.99,0,29,13.009,29,29v10.827&#10;&#9;&#9;&#9;&#9;h13.849c6.822,0,13.071,2.483,17.904,6.587V97.5c0-49.706-40.294-90-90-90h-38.191c-49.706,0-90,40.294-90,90v55.994&#10;&#9;&#9;&#9;&#9;C188.687,149.391,194.937,146.907,201.759,146.907z"/>
			<path style="fill:#A44F3E;" d="M342.633,107.114c15.37,0.703,27.659,13.425,27.659,28.966v10.827h13.848&#10;&#9;&#9;&#9;&#9;c6.822,0,13.072,2.483,17.905,6.587V97.5c0-47.441-36.707-86.307-83.269-89.75c14.803,16.04,23.856,37.466,23.856,61.014V107.114&#10;&#9;&#9;&#9;&#9;z"/>
			<path style="fill:#A6E7F0;" d="M473.335,504.5H97.564V359.822c0-38.66,31.34-70,70-70h250.771c38.66,0,70,31.34,70,70V489.5&#10;&#9;&#9;&#9;&#9;C488.335,497.784,481.619,504.5,473.335,504.5z"/>
			<path style="fill:#6BD9E7;" d="M451,297.912v161.766c0,8.284-6.716,15-15,15H97.564V504.5h375.771c8.284,0,15-6.716,15-15&#10;&#9;&#9;&#9;&#9;V359.822C488.334,332.963,473.2,309.649,451,297.912z"/>
			<path style="fill:#6BD9E7;" d="M292.949,364.167c37.029,0,67.155-30.126,67.155-67.155v-7.19h-134.31v7.19&#10;&#9;&#9;&#9;&#9;C225.794,334.041,255.919,364.167,292.949,364.167z"/>
			<path style="fill:#FFB09E;" d="M312.633,262.689h-39.367c-4.023,0-7.952-0.403-11.758-1.152v35.475&#10;&#9;&#9;&#9;&#9;c0,17.365,14.077,31.441,31.441,31.441l0,0c17.365,0,31.441-14.077,31.441-31.441v-35.475&#10;&#9;&#9;&#9;&#9;C320.585,262.287,316.655,262.689,312.633,262.689z"/>
			<g>
				<path style="fill:#FFCEBF;" d="M215.606,145.907h-13.848c-15.854,0-28.707,12.852-28.707,28.706v0&#10;&#9;&#9;&#9;&#9;&#9;c0,15.854,12.852,28.706,28.707,28.706h13.848V145.907z"/>
				<path style="fill:#FFB09E;" d="M384.14,145.907h-13.848v57.413h13.848c15.854,0,28.706-12.852,28.706-28.706v0&#10;&#9;&#9;&#9;&#9;&#9;C412.846,158.76,399.994,145.907,384.14,145.907z"/>
			</g>
			<path style="fill:#FFDFCF;" d="M311.292,263.71h-36.686c-33.137,0-60-26.863-60-60V136.08c0-16.569,13.431-30,30-30h96.686&#10;&#9;&#9;&#9;&#9;c16.569,0,30,13.431,30,30v67.629C371.292,236.847,344.429,263.71,311.292,263.71z"/>
			<path style="fill:#FFCEBF;" d="M342.633,106.114V204c0,16.569-13.431,30-30,30H222.82c10.416,17.769,29.701,29.71,51.786,29.71&#10;&#9;&#9;&#9;&#9;h36.686c33.137,0,60-26.863,60-60v-67.63C371.292,119.961,358.578,106.816,342.633,106.114z"/>
			<g>
				<g>
					<path style="fill:#2ED1E2;" d="M406.358,419.149c-2.657-2.172-4.763-4.951-5.954-8.17c-2.276-6.156-8.196-10.544-15.143-10.544&#10;&#9;&#9;&#9;&#9;&#9;&#9;c-6.947,0-12.867,4.389-15.143,10.544c-1.19,3.219-3.297,5.998-5.954,8.17c-3.655,2.989-5.976,7.548-5.93,12.649&#10;&#9;&#9;&#9;&#9;&#9;&#9;c0.079,8.66,7.108,15.792,15.766,15.991c1.841,0.042,3.614-0.224,5.271-0.751c3.906-1.241,8.075-1.241,11.981,0&#10;&#9;&#9;&#9;&#9;&#9;&#9;c1.657,0.526,3.43,0.793,5.271,0.751c8.658-0.198,15.687-7.331,15.766-15.991C412.334,426.697,410.014,422.138,406.358,419.149&#10;&#9;&#9;&#9;&#9;&#9;&#9;z"/>
				</g>
			</g>
			<g>
				<g>
					<circle style="fill:#BBF49B;" cx="104.579" cy="402.251" r="80.913"/>
					<path style="fill:#9BE69D;" d="M106.471,321.386C134.496,334.101,154,362.307,154,395.086C154,439.774,117.774,476,73.086,476&#10;&#9;&#9;&#9;&#9;&#9;&#9;c-0.634,0-1.261-0.033-1.892-0.048c10.181,4.619,21.476,7.213,33.384,7.213c44.687,0,80.913-36.226,80.913-80.913&#10;&#9;&#9;&#9;&#9;&#9;&#9;C185.492,358.198,150.281,322.394,106.471,321.386z"/>
					<path style="fill:#6FD7A3;" d="M134.873,327.223L29.55,432.545c8.211,20.314,24.421,36.524,44.735,44.735l105.322-105.322&#10;&#9;&#9;&#9;&#9;&#9;&#9;C171.397,351.643,155.187,335.433,134.873,327.223z"/>
					<g>
						<path style="fill:#3EC3A4;" d="M154,395.086c0,0.853-0.038,1.697-0.064,2.543l25.672-25.672&#10;&#9;&#9;&#9;&#9;&#9;&#9;&#9;c-8.211-20.315-24.421-36.524-44.735-44.735l-7.697,7.697C143.64,349.731,154,371.196,154,395.086z"/>
					</g>
				</g>
				<path style="fill:#FFDFCF;" d="M146.243,466.724V489.5c0,8.284-6.716,15-15,15H77.915c-8.284,0-15-6.716-15-15v-22.776&#10;&#9;&#9;&#9;&#9;&#9;c0-8.284,6.716-15,15-15h53.328C139.527,451.724,146.243,458.439,146.243,466.724z"/>
				<path style="fill:#FFCEBF;" d="M131.243,451.724h-14.915v12.955c0,5.523-4.477,10-10,10H62.915V489.5c0,8.284,6.716,15,15,15&#10;&#9;&#9;&#9;&#9;&#9;h53.328c8.284,0,15-6.716,15-15v-22.776C146.243,458.439,139.527,451.724,131.243,451.724z"/>
			</g>
		</g>
		<path style="fill:#03BED7;" d="M406.358,419.149c-2.657-2.172-4.763-4.951-5.954-8.17c-1.938-5.243-6.524-9.193-12.133-10.253&#10;&#9;&#9;&#9;C392.479,406.019,395,412.713,395,420c0,11.655-6.435,21.802-15.942,27.096c0.07-0.021,0.143-0.036,0.212-0.058&#10;&#9;&#9;&#9;c3.906-1.241,8.074-1.241,11.981,0c1.657,0.526,3.43,0.793,5.271,0.75c8.658-0.198,15.687-7.331,15.766-15.991&#10;&#9;&#9;&#9;C412.334,426.697,410.014,422.138,406.358,419.149z"/>
	</g>
	<g>
		<path style="fill:none;stroke:#000000;stroke-width:15;stroke-linejoin:round;stroke-miterlimit:10;" d="M214.606,145.907h-12.848&#10;&#9;&#9;&#9;c-15.854,0-28.707,12.852-28.707,28.706v0c0,15.854,12.852,28.706,28.707,28.706h12.848V145.907z"/>
		<path style="fill:none;stroke:#000000;stroke-width:15;stroke-linejoin:round;stroke-miterlimit:10;" d="M384.14,145.907h-12.848&#10;&#9;&#9;&#9;v57.413h12.848c15.854,0,28.706-12.852,28.706-28.706v0C412.846,158.76,399.994,145.907,384.14,145.907z"/>
		<g>
			<g>
				
					<line style="fill:none;stroke:#000000;stroke-width:15;stroke-linecap:round;stroke-linejoin:round;stroke-miterlimit:10;" x1="260.654" y1="150.224" x2="260.654" y2="158.642"/>
				
					<line style="fill:none;stroke:#000000;stroke-width:15;stroke-linecap:round;stroke-linejoin:round;stroke-miterlimit:10;" x1="325.244" y1="150.224" x2="325.244" y2="158.642"/>
			</g>
			<path style="fill:none;stroke:#000000;stroke-width:15;stroke-linecap:round;stroke-linejoin:round;stroke-miterlimit:10;" d="&#10;&#9;&#9;&#9;&#9;M272.016,217.51c11.57,11.57,30.295,11.57,41.866,0"/>
			
				<polyline style="fill:none;stroke:#000000;stroke-width:15;stroke-linecap:round;stroke-linejoin:round;stroke-miterlimit:10;" points="&#10;&#9;&#9;&#9;&#9;292.949,156.06 280.39,178.487 292.949,191.943 &#9;&#9;&#9;"/>
		</g>
		<g>
			
				<line style="fill:none;stroke:#000000;stroke-width:15;stroke-linecap:round;stroke-linejoin:round;stroke-miterlimit:10;" x1="371.455" y1="370.313" x2="371.455" y2="375.333"/>
			
				<line style="fill:none;stroke:#000000;stroke-width:15;stroke-linecap:round;stroke-linejoin:round;stroke-miterlimit:10;" x1="399.067" y1="370.313" x2="399.067" y2="375.333"/>
		</g>
		<g>
			
				<line style="fill:none;stroke:#000000;stroke-width:15;stroke-linecap:round;stroke-linejoin:round;stroke-miterlimit:10;" x1="345.726" y1="389.139" x2="345.726" y2="394.16"/>
			
				<line style="fill:none;stroke:#000000;stroke-width:15;stroke-linecap:round;stroke-linejoin:round;stroke-miterlimit:10;" x1="424.796" y1="389.139" x2="424.796" y2="394.16"/>
		</g>
		<path style="fill:none;stroke:#000000;stroke-width:15;stroke-linejoin:round;stroke-miterlimit:10;" d="M311.292,263.71h-36.686&#10;&#9;&#9;&#9;c-33.137,0-60-26.863-60-60V136.08c0-16.569,13.431-30,30-30h96.686c16.569,0,30,13.431,30,30v67.629&#10;&#9;&#9;&#9;C371.292,236.847,344.429,263.71,311.292,263.71z"/>
		<path style="fill:none;stroke:#000000;stroke-width:15;stroke-linejoin:round;stroke-miterlimit:10;" d="M261.508,262.258v34.753&#10;&#9;&#9;&#9;c0,17.365,14.077,31.441,31.441,31.441c17.365,0,31.441-14.077,31.441-31.441v-34.753"/>
		<path style="fill:none;stroke:#000000;stroke-width:15;stroke-linejoin:round;stroke-miterlimit:10;" d="M225.794,289.822v7.19&#10;&#9;&#9;&#9;c0,37.029,30.126,67.155,67.155,67.155c37.03,0,67.155-30.126,67.155-67.155v-7.19"/>
		<g>
			<path style="fill:none;stroke:#000000;stroke-width:15;stroke-linejoin:round;stroke-miterlimit:10;" d="M406.358,419.149&#10;&#9;&#9;&#9;&#9;c-2.657-2.172-4.763-4.951-5.954-8.17c-2.276-6.156-8.196-10.544-15.143-10.544c-6.947,0-12.867,4.389-15.143,10.544&#10;&#9;&#9;&#9;&#9;c-1.19,3.219-3.297,5.998-5.954,8.17c-3.655,2.989-5.976,7.548-5.93,12.649c0.079,8.66,7.108,15.792,15.766,15.991&#10;&#9;&#9;&#9;&#9;c1.841,0.042,3.614-0.224,5.271-0.751c3.906-1.241,8.075-1.241,11.981,0c1.657,0.526,3.43,0.793,5.271,0.751&#10;&#9;&#9;&#9;&#9;c8.658-0.198,15.687-7.331,15.766-15.991C412.334,426.697,410.014,422.138,406.358,419.149z"/>
		</g>
		<path style="fill:none;stroke:#000000;stroke-width:15;stroke-linejoin:round;stroke-miterlimit:10;" d="M146.243,466.724V489.5&#10;&#9;&#9;&#9;c0,8.284-6.716,15-15,15H77.915c-8.284,0-15-6.716-15-15v-22.776c0-8.284,6.716-15,15-15h53.328&#10;&#9;&#9;&#9;C139.527,451.724,146.243,458.439,146.243,466.724z"/>
		
			<line style="fill:none;stroke:#000000;stroke-width:15;stroke-linejoin:round;stroke-miterlimit:10;" x1="134.873" y1="327.223" x2="29.55" y2="432.545"/>
		
			<line style="fill:none;stroke:#000000;stroke-width:15;stroke-linejoin:round;stroke-miterlimit:10;" x1="99.842" y1="451.724" x2="179.608" y2="371.958"/>
		<path style="fill:none;stroke:#000000;stroke-width:15;stroke-linecap:round;stroke-linejoin:round;stroke-miterlimit:10;" d="&#10;&#9;&#9;&#9;M37.202,357.453c-8.546,12.828-13.536,28.228-13.536,44.798c0,29.447,15.734,55.213,39.25,69.368"/>
		<path style="fill:none;stroke:#000000;stroke-width:15;stroke-linecap:round;stroke-linejoin:round;stroke-miterlimit:10;" d="&#10;&#9;&#9;&#9;M146.243,471.619c23.516-14.154,39.25-39.921,39.25-69.368c0-44.687-36.226-80.913-80.913-80.913&#10;&#9;&#9;&#9;c-15.445,0-29.877,4.332-42.154,11.841"/>
		<path style="fill:none;stroke:#000000;stroke-width:15;stroke-linecap:round;stroke-linejoin:round;stroke-miterlimit:10;" d="&#10;&#9;&#9;&#9;M131.243,504.5h342.092c8.284,0,15-6.716,15-15v-36.733"/>
		<path style="fill:none;stroke:#000000;stroke-width:15;stroke-linejoin:round;stroke-miterlimit:10;" d="M261.508,289.822h-93.944&#10;&#9;&#9;&#9;c-24.494,0-46.037,12.59-58.545,31.642"/>
		<path style="fill:none;stroke:#000000;stroke-width:15;stroke-linecap:round;stroke-linejoin:round;stroke-miterlimit:10;" d="&#10;&#9;&#9;&#9;M488.334,417.767v-57.945c0-38.66-31.34-70-70-70H324.39"/>
		<path style="fill:none;stroke:#000000;stroke-width:15;stroke-linecap:round;stroke-linejoin:round;stroke-miterlimit:10;" d="&#10;&#9;&#9;&#9;M402.045,152.184V97.5c0-49.706-40.294-90-90-90h-38.191c-20.161,0-38.773,6.63-53.777,17.828"/>
		<path style="fill:none;stroke:#000000;stroke-width:15;stroke-linecap:round;stroke-linejoin:round;stroke-miterlimit:10;" d="&#10;&#9;&#9;&#9;M196.586,51.335c-8.082,13.498-12.732,29.288-12.732,46.165v54.684"/>
	</g>
</g>
<g>
</g>
<g>
</g>
<g>
</g>
<g>
</g>
<g>
</g>
<g>
</g>
<g>
</g>
<g>
</g>
<g>
</g>
<g>
</g>
<g>
</g>
<g>
</g>
<g>
</g>
<g>
</g>
<g>
</g>
</svg>