<?xml version="1.0" encoding="utf-8"?>
<!-- Generator: Adobe Illustrator 28.2.0, SVG Export Plug-In . SVG Version: 6.00 Build 0)  -->
<svg version="1.1" id="a" xmlns="http://www.w3.org/2000/svg" xmlns:xlink="http://www.w3.org/1999/xlink" x="0px" y="0px"
	 viewBox="0 0 150 150" style="enable-background:new 0 0 150 150;" xml:space="preserve">
<style type="text/css">
	.st0{fill:none;}
	.st1{fill:#3D4ED9;}
</style>
<path class="st0" d="M0,0h150v150H0V0z"/>
<path class="st1" d="M75.6,74.7c-22,0.1-28.9,26.5-16.8,42.8c3.4,4.8,7.7,8.8,12.7,11.8c3.7,2.2,1.7,7.1-2.3,6.9
	c-30.5-3.4-48.7-37.5-34.1-64.6c12.8-24,48.1-31.2,69.2-14.1c21.7,16.4,16.4,53-12.1,57.2c-6,1-12.1-0.3-17.2-3.7
	c-2.9-1.7-1.8-6.1,1.4-6.6c1.5-0.3,3-0.3,4.5-0.7c9.5-2,14.8-11,10.4-19.9c-2.1-4.8-6.2-7.5-11.3-8.6C78.7,74.9,77.1,74.7,75.6,74.7
	L75.6,74.7z"/>
<ellipse class="st1" cx="128.4" cy="45.8" rx="14.8" ry="19.8"/>
<ellipse class="st1" cx="94.8" cy="21.6" rx="14.8" ry="19.8"/>
<ellipse class="st1" cx="56.2" cy="21.6" rx="14.8" ry="19.8"/>
<ellipse class="st1" cx="22.6" cy="45.8" rx="14.8" ry="19.8"/>
</svg>
