<svg height="512" viewBox="0 0 128 128" width="512" xmlns="http://www.w3.org/2000/svg"><g><path d="m88.365 12.2a32.548 32.548 0 0 0 -24.365 10.933 32.636 32.636 0 0 0 -54.377 34.534s.862 1.888 1.332 2.75c19.59 35.175 53.045 55.383 53.045 55.383s33.455-20.208 53.045-55.383c.471-.862 1.332-2.75 1.332-2.75a32.646 32.646 0 0 0 -30.012-45.467z" fill="#f95353"/><g fill="#ffd3c2"><path d="m64 54.715c12.333 0 25.525 16.542 20.109 27.488-3.287 6.646-10 6.939-14.759 6.145a32.509 32.509 0 0 0 -10.7 0c-4.763.794-11.472.5-14.76-6.145-5.415-10.946 7.777-27.488 20.11-27.488z"/><g><ellipse cx="54.539" cy="41.807" rx="6.259" ry="7.706"/><ellipse cx="73.461" cy="41.807" rx="6.259" ry="7.706"/></g><g><path d="m44.715 53.434c0 3.675-2.42 6.654-5.406 6.654s-5.4-2.979-5.4-6.654 2.42-6.655 5.4-6.655 5.406 2.979 5.406 6.655z"/><path d="m83.285 53.434c0 3.675 2.42 6.654 5.406 6.654s5.409-2.979 5.409-6.654-2.42-6.655-5.405-6.655-5.41 2.979-5.41 6.655z"/></g></g></g></svg>